<?xml version="1.0" encoding="UTF-8"?><svg id="Capa_1" xmlns="http://www.w3.org/2000/svg" viewBox="0 0 134.61 29.63"><polygon points="104.96 0 134.59 0 134.59 16 134.59 20.33 134.59 29.63 104.96 29.63 104.96 14.55 104.96 12.49 104.96 0 104.96 0" style="fill:#3470b4; fill-rule:evenodd; stroke-width:0px;"/><path d="m110.72,20.65v-4.65h4.92l.53.69.55-.69h17.88v4.33s-.47.31-1.01.32h-9.9l-.6-.73v.73h-1.95v-1.25s-.27.18-.84.18h-.67v1.08h-2.96l-.53-.7-.53.7h-4.89Z" style="fill:#fff; fill-rule:evenodd; stroke-width:0px;"/><path d="m104.96,12.49l1.11-2.59h1.92l.63,1.45v-1.45h2.39l.38,1.05.36-1.05h10.72v.53s.56-.53,1.49-.53h3.48l.62,1.44v-1.44h2l.55.82v-.82h2.02v4.65h-2.02l-.53-.83v.83h-2.94l-.3-.73h-.79l-.29.73h-1.99c-.8,0-1.31-.52-1.31-.52v.52h-3l-.6-.73v.73h-11.16l-.3-.73h-.79l-.29.73h-1.37v-2.06h0Z" style="fill:#fff; fill-rule:evenodd; stroke-width:0px;"/><path d="m106.47,10.47l-1.5,3.48h.98l.28-.7h1.61l.27.7h1l-1.5-3.48h-1.14Zm.56.81l.49,1.22h-.98l.49-1.22h0Z" style="fill:#3470b4; fill-rule:evenodd; stroke-width:0px;"/><polygon points="109.2 13.96 109.2 10.47 110.59 10.48 111.4 12.72 112.18 10.47 113.56 10.47 113.56 13.96 112.69 13.96 112.69 11.39 111.77 13.96 111 13.96 110.08 11.39 110.08 13.96 109.2 13.96 109.2 13.96" style="fill:#3470b4; fill-rule:evenodd; stroke-width:0px;"/><polygon points="114.15 13.96 114.15 10.47 117 10.47 117 11.25 115.04 11.25 115.04 11.85 116.95 11.85 116.95 12.58 115.04 12.58 115.04 13.2 117 13.2 117 13.96 114.15 13.96 114.15 13.96" style="fill:#3470b4; fill-rule:evenodd; stroke-width:0px;"/><path d="m117.5,10.47v3.48h.87v-1.24h.37l1.04,1.24h1.06l-1.14-1.28c.47-.04.95-.44.95-1.07,0-.73-.57-1.13-1.22-1.13h-1.94.01Zm.87.78h.99c.24,0,.41.19.41.37,0,.23-.23.37-.4.37h-1.01v-.73h0Z" style="fill:#3470b4; fill-rule:evenodd; stroke-width:0px;"/><polygon points="121.9 13.96 121.01 13.96 121.01 10.47 121.9 10.47 121.9 13.96 121.9 13.96" style="fill:#3470b4; fill-rule:evenodd; stroke-width:0px;"/><path d="m124.01,13.96h-.19c-.93,0-1.49-.73-1.49-1.73s.56-1.76,1.73-1.76h.96v.83h-1c-.48,0-.81.37-.81.94,0,.67.38.96.94.96h.23l-.37.76h0Z" style="fill:#3470b4; fill-rule:evenodd; stroke-width:0px;"/><path d="m125.9,10.47l-1.5,3.48h.98l.28-.7h1.61l.27.7h1l-1.5-3.48h-1.14Zm.56.81l.49,1.22h-.98l.49-1.22h0Z" style="fill:#3470b4; fill-rule:evenodd; stroke-width:0px;"/><polygon points="128.64 13.96 128.64 10.47 129.74 10.47 131.16 12.66 131.16 10.47 132.03 10.47 132.03 13.96 130.96 13.96 129.51 11.71 129.51 13.96 128.64 13.96 128.64 13.96" style="fill:#3470b4; fill-rule:evenodd; stroke-width:0px;"/><polygon points="111.31 20.05 111.31 16.57 114.15 16.57 114.15 17.35 112.19 17.35 112.19 17.94 114.11 17.94 114.11 18.68 112.19 18.68 112.19 19.3 114.15 19.3 114.15 20.05 111.31 20.05 111.31 20.05" style="fill:#3470b4; fill-rule:evenodd; stroke-width:0px;"/><polygon points="125.24 20.05 125.24 16.57 128.08 16.57 128.08 17.35 126.12 17.35 126.12 17.94 128.02 17.94 128.02 18.68 126.12 18.68 126.12 19.3 128.08 19.3 128.08 20.05 125.24 20.05 125.24 20.05" style="fill:#3470b4; fill-rule:evenodd; stroke-width:0px;"/><polygon points="114.26 20.05 115.65 18.33 114.23 16.57 115.33 16.57 116.17 17.66 117.02 16.57 118.07 16.57 116.67 18.31 118.06 20.05 116.96 20.05 116.14 18.98 115.35 20.05 114.26 20.05 114.26 20.05" style="fill:#3470b4; fill-rule:evenodd; stroke-width:0px;"/><path d="m118.16,16.57v3.48h.89v-1.1h.92c.78,0,1.36-.41,1.36-1.21,0-.66-.46-1.17-1.25-1.17,0,0-1.92,0-1.92,0Zm.89.79h.97c.25,0,.43.15.43.4,0,.23-.18.4-.43.4h-.96v-.8h0Z" style="fill:#3470b4; fill-rule:evenodd; stroke-width:0px;"/><path d="m121.71,16.57v3.48h.87v-1.24h.37l1.04,1.24h1.06l-1.14-1.28c.47-.04.95-.44.95-1.07,0-.73-.57-1.13-1.22-1.13h-1.94.01Zm.87.78h.99c.24,0,.41.19.41.37,0,.23-.23.37-.4.37h-1.01v-.73h0Z" style="fill:#3470b4; fill-rule:evenodd; stroke-width:0px;"/><path d="m128.48,20.05v-.76h1.74c.26,0,.37-.14.37-.29s-.11-.3-.37-.3h-.79c-.68,0-1.06-.42-1.06-1.04,0-.56.35-1.1,1.37-1.1h1.7l-.37.78h-1.47c-.28,0-.37.15-.37.29s.11.3.32.3h.83c.76,0,1.09.43,1.09,1,0,.61-.37,1.11-1.13,1.11h-1.87,0Z" style="fill:#3470b4; fill-rule:evenodd; stroke-width:0px;"/><path d="m131.68,20.05v-.76h1.67c.26,0,.37-.14.37-.29s-.11-.3-.37-.3h-.71c-.68,0-1.06-.42-1.06-1.04,0-.56.35-1.1,1.37-1.1h1.66l-.37.78h-1.43c-.28,0-.37.15-.37.29s.11.3.32.3h.75c.76,0,1.09.43,1.09,1,0,.61-.37,1.11-1.13,1.11h-1.79Z" style="fill:#3470b4; fill-rule:evenodd; stroke-width:0px;"/><path d="m60.91,29.5v-2c0-.76-.47-1.23-1.23-1.23-.38,0-.81.13-1.1.55-.21-.34-.55-.55-1.02-.55-.34,0-.68.09-.93.47v-.38h-.68v3.14h.68v-1.74c0-.55.3-.85.76-.85s.68.3.68.85v1.74h.68v-1.74c0-.55.34-.85.76-.85.47,0,.68.3.68.85v1.74h.72,0Zm10.27-3.14h-1.1v-.98h-.68v.98h-.64v.64h.64v1.44c0,.72.3,1.19,1.1,1.19.3,0,.64-.09.85-.26l-.21-.59c-.21.13-.42.17-.59.17-.34,0-.47-.21-.47-.51v-1.44h1.1v-.64Zm5.81-.09c-.38,0-.64.17-.85.47v-.38h-.68v3.14h.68v-1.78c0-.51.21-.81.68-.81.13,0,.3,0,.42.09l.21-.64c-.13-.09-.3-.09-.47-.09h.01Zm-8.83.34c-.34-.21-.81-.34-1.27-.34-.81,0-1.32.38-1.32,1.02,0,.51.38.85,1.1.93l.34.04c.38.04.55.17.55.34,0,.26-.26.38-.72.38s-.81-.17-1.06-.34l-.34.55c.38.3.85.42,1.36.42.89,0,1.44-.42,1.44-1.02,0-.55-.42-.85-1.1-.93l-.34-.04c-.3-.04-.55-.09-.55-.3s.21-.38.59-.38.81.17.98.26c0,0,.34-.59.34-.59Zm18.38-.34c-.38,0-.64.17-.85.47v-.38h-.68v3.14h.68v-1.78c0-.51.21-.81.68-.81.13,0,.3,0,.42.09l.21-.64c-.13-.09-.34-.09-.47-.09h.01Zm-8.83,1.65c0,.98.68,1.65,1.7,1.65.47,0,.81-.13,1.15-.38l-.34-.55c-.26.17-.51.3-.81.3-.55,0-.93-.38-.93-1.02,0-.59.38-1.02.93-1.02.3,0,.55.09.81.3l.34-.55c-.34-.26-.68-.38-1.15-.38-1.06-.04-1.7.68-1.7,1.65h0Zm6.41,0v-1.57h-.68v.38c-.21-.3-.55-.47-1.02-.47-.89,0-1.57.68-1.57,1.65s.68,1.65,1.57,1.65c.47,0,.76-.17,1.02-.47v.38h.68v-1.57.02Zm-2.55,0c0-.55.34-1.02.98-1.02s.93.42.93,1.02c0,.55-.38,1.02-.93,1.02s-.98-.47-.98-1.02Zm-8.27-1.65c-.93,0-1.57.68-1.57,1.65s.68,1.65,1.61,1.65c.47,0,.89-.13,1.27-.42l-.34-.51c-.26.21-.59.34-.93.34-.42,0-.85-.21-.93-.76h2.33v-.26c.04-1.06-.55-1.7-1.44-1.7h0Zm0,.59c.42,0,.72.3.81.76h-1.65c.09-.42.34-.76.85-.76h0Zm17.19,1.06v-2.84h-.68v1.65c-.21-.3-.55-.47-1.02-.47-.89,0-1.57.68-1.57,1.65s.68,1.65,1.57,1.65c.47,0,.76-.17,1.02-.47v.38h.68v-1.57.02Zm.81,1.27h.09s.04.04.09.04c0,0,.04.04.04.09v.17s-.04.04-.04.09c0,0-.04.04-.09.04h-.17s-.04-.04-.09-.04c0,0-.04-.04-.04-.09v-.17s.04-.04.04-.09.04-.04.09-.04h.09,0Zm0,.34h.04s.04,0,.04-.04l.04-.04v-.09s0-.04-.04-.04l-.04-.04h-.09s-.04,0-.04.04l-.04.04v.09s0,.04.04.04l.04.04h.05Zm0-.21h.04v.09h-.04l.04.09h-.04l-.04-.09v.09h-.04v-.17h.09,0Zm-.04,0v.04h.09-.09v-.04Zm-3.31-1.4c0-.55.34-1.02.98-1.02.59,0,.93.42.93,1.02,0,.55-.38,1.02-.93,1.02-.59-.04-.98-.47-.98-1.02Zm-23.17,0v-1.57h-.68v.38c-.21-.3-.55-.47-1.02-.47-.89,0-1.57.68-1.57,1.65s.68,1.65,1.57,1.65c.47,0,.76-.17,1.02-.47v.38h.68v-1.57.02Zm-2.55,0c0-.55.34-1.02.98-1.02.59,0,.93.42.93,1.02,0,.55-.38,1.02-.93,1.02-.59-.04-.98-.47-.98-1.02Z" style="fill:#12213e; stroke-width:0px;"/><path d="m68.19,18.51h9.07V2.15h-9.07v16.36Z" style="fill:#db6238; fill-rule:evenodd; stroke-width:0px;"/><path d="m68.75,10.38c0-3.27,1.59-6.26,3.93-8.13C70.9.85,68.66,0,66.32,0c-5.7,0-10.38,4.67-10.38,10.38s4.67,10.38,10.38,10.38c2.43,0,4.67-.84,6.36-2.24-2.34-1.87-3.93-4.86-3.93-8.13" style="fill:#d63d36; fill-rule:evenodd; stroke-width:0px;"/><path d="m89.13,16.83v-.37h-.09l-.09.28-.09-.28h-.09v.37h.09v-.28l.09.28h.09l.09-.28v.28Zm-.66,0v-.37h.09v-.09h-.37v.09h.09s.19.37.19.37Zm1.03-6.45c0,5.7-4.67,10.38-10.38,10.38-2.43,0-4.67-.84-6.36-2.24,2.43-1.87,3.93-4.86,3.93-8.13s-1.59-6.26-3.93-8.13C74.54.86,76.78.02,79.12.02c5.7,0,10.38,4.58,10.38,10.38v-.02Z" style="fill:#e99d42; fill-rule:evenodd; stroke-width:0px;"/><polygon points="12.56 22.14 16.45 9.33 19.92 9.33 16.03 22.14 12.56 22.14 12.56 22.14" style="fill:#394f9d; fill-rule:evenodd; stroke-width:0px;"/><path d="m11.01,9.33l-3.12,5.43c-.79,1.42-1.26,2.14-1.48,3.04h-.05c.06-1.14-.1-2.54-.12-3.33l-.34-5.14H.06l-.06.34c1.5,0,2.39.75,2.63,2.29l1.14,10.17h3.59l7.26-12.81h-3.62,0Z" style="fill:#394f9d; fill-rule:evenodd; stroke-width:0px;"/><path d="m37.97,22.14l-.1-1.91h-4.33l-.89,1.91h-3.76l6.82-12.79h4.62l1.16,12.79h-3.53,0Zm-.4-7.56c-.04-.95-.07-2.23,0-3.01h-.05c-.21.64-1.12,2.55-1.52,3.49l-1.29,2.81h3.04l-.18-3.28h0Z" style="fill:#394f9d; fill-rule:evenodd; stroke-width:0px;"/><path d="m23.55,22.5c-2.45,0-4.07-.78-5.23-1.47l1.65-2.52c1.04.58,1.86,1.25,3.74,1.25.6,0,1.19-.16,1.52-.73.48-.83-.11-1.28-1.47-2.05l-.67-.43c-2.01-1.37-2.88-2.67-1.93-4.95.6-1.45,2.2-2.56,4.83-2.56,1.81,0,3.52.78,4.51,1.55l-1.9,2.23c-.97-.78-1.77-1.18-2.69-1.18-.73,0-1.29.28-1.48.66-.36.72.12,1.2,1.17,1.86l.8.51c2.44,1.54,3.02,3.15,2.41,4.66-1.05,2.59-3.11,3.17-5.26,3.17h0Z" style="fill:#394f9d; fill-rule:evenodd; stroke-width:0px;"/><path d="m42.45,11.31h-.23v-1.39h.53c.34,0,.51.12.51.4,0,.25-.15.36-.36.38l.39.61h-.26l-.36-.59h-.21v.59h0Zm.25-.79c.17,0,.32-.02.32-.22,0-.17-.16-.19-.3-.19h-.28v.41h.26Zm0,1.33c-.72,0-1.23-.54-1.23-1.25,0-.75.57-1.25,1.23-1.25s1.23.5,1.23,1.25-.57,1.25-1.23,1.25h0Zm0-2.29c-.54,0-.97.43-.97,1.04,0,.57.37,1.04.97,1.04.54,0,.96-.42.96-1.04s-.42-1.04-.96-1.04h0Z" style="fill:#394f9d; fill-rule:evenodd; stroke-width:0px;"/></svg>